<svg id="Group_62899" data-name="Group 62899" xmlns="http://www.w3.org/2000/svg" width="23.373" height="23.373" viewBox="0 0 23.373 23.373">
  <path id="Path_61967" data-name="Path 61967" d="M0,0H23.373V23.373H0Z" fill="none"/>
  <path id="Path_61968" data-name="Path 61968" d="M7.869,3.987H20.53V5.935H7.869ZM4.461,6.422A1.461,1.461,0,1,1,5.922,4.961,1.461,1.461,0,0,1,4.461,6.422Zm0,6.817a1.461,1.461,0,1,1,1.461-1.461A1.461,1.461,0,0,1,4.461,13.239Zm0,6.72A1.461,1.461,0,1,1,5.922,18.5a1.461,1.461,0,0,1-1.461,1.461ZM7.869,10.8H20.53v1.948H7.869Zm0,6.817H20.53v1.948H7.869Z" transform="translate(-0.078 -0.091)" fill="#e7eff2"/>
</svg>
